<svg width="222" height="90" viewBox="0 0 222 90" fill="none" xmlns="http://www.w3.org/2000/svg">
<path d="M119.682 39.265C117.607 43.7271 111.812 45.1747 107.469 43.5334C105.196 42.6731 103.476 41.1074 102.42 38.9139C101.95 37.8174 101.559 36.681 101.638 35.5095H107.548C107.548 36.9178 108.605 38.0936 109.856 38.5628C111.659 39.2687 113.848 38.5628 114.748 36.7997C115.257 35.8607 115.099 34.7249 114.511 33.8645C113.534 32.3376 111.616 32.1408 109.97 31.9865C108.093 31.7891 106.133 31.1262 104.491 29.9904C101.28 27.6824 100.652 23.0236 102.259 19.6549C104.333 15.1928 110.128 13.7452 114.472 15.3865C116.744 16.2074 118.425 17.7731 119.521 20.006C119.991 20.9844 120.381 22.1995 120.267 23.4104H114.397C114.397 21.9628 113.338 20.787 112.049 20.3571C110.72 19.8086 109.074 20.0454 108.018 21.0237C106.842 22.0808 106.569 23.7652 107.429 25.0554C108.408 26.5423 110.326 26.7791 111.931 26.8941C113.847 27.0915 115.805 27.7544 117.45 28.8902C120.66 31.2018 121.288 35.9 119.682 39.265Z" fill="white"/>
<path d="M144.597 20.4366H136.925V43.5735H131.757V20.4366H124.124V15.3478H144.598V20.4366H144.597Z" fill="white"/>
<path d="M158.901 15.3094L145.043 43.6138H150.486L158.901 26.4333L167.319 43.6138H172.759L158.901 15.3094H158.901Z" fill="white"/>
<path d="M198.219 43.5746H191.875L186.866 36.2137L185.299 33.9808L185.26 33.9021H181.462V43.571H176.333V15.1879H186.708C191.875 15.1879 196.105 19.4169 196.105 24.5843C196.105 28.2648 193.99 31.4367 190.858 32.963H190.898L198.219 43.5746ZM190.858 24.588C190.858 22.3551 189.135 20.5564 186.985 20.4377H181.466V28.7771H186.985C189.135 28.6196 190.858 26.7809 190.858 24.5874V24.588Z" fill="white"/>
<path d="M221.999 20.4366H214.326V43.5735H209.158V20.4366H201.525V15.3478H222V20.4366H221.999Z" fill="white"/>
<path d="M30.2746 14.7377C13.5566 14.7377 0 28.2912 0 45.0124C0 61.7335 13.5535 75.2871 30.2746 75.2871C46.9957 75.2871 60.5492 61.7335 60.5492 45.0124C60.5492 28.2912 46.9926 14.7377 30.2746 14.7377ZM41.966 58.7891L30.2746 33.605L18.5832 58.7891H13.4871L30.2777 22.6626L47.0682 58.7891H41.966Z" fill="white"/>
<path d="M82.2786 0H79.6841V90H82.2786V0Z" fill="white"/>
<path d="M119.141 74.7513V61.5126L112.124 68.4345L105.054 61.5126V74.7513H102.392V55.301L112.071 64.7761L121.803 55.301V74.7513H119.142H119.141Z" fill="white"/>
<path d="M125.501 55.6954H128.08V74.7245H125.501V55.6954Z" fill="white"/>
<path d="M132.186 74.7509V55.7218H134.765V72.1718H143.582V74.7509H132.186Z" fill="white"/>
<path d="M163.795 74.698H161.11L158.978 70.0656H150.951L148.792 74.698H146.107L154.951 55.669L163.794 74.698H163.795ZM157.847 67.6181L154.952 61.4329L152.083 67.6181H157.847Z" fill="white"/>
<path d="M166.585 74.698V55.4321L179.061 68.4869V55.7482H181.613V75.1456L169.138 62.0908V74.698H166.585Z" fill="white"/>
</svg>
